<?xml version="1.0" encoding="UTF-8" standalone="no"?>
<svg version="1.1" xmlns="http://www.w3.org/2000/svg" xmlns:xlink="http://www.w3.org/1999/xlink" width="480" height="360">
	<defs>
		<clipPath id="clip_dp_001" clipPathUnits="userSpaceOnUse" clip-rule="nonzero">
			<path d="M 0,0 L 480,0 L 480,360 L 0,360 Z " clip-rule="nonzero"/>
		</clipPath>
	</defs>
	<g id="dp_dp001" clip-path="url(#clip_dp_001)">
		<g id="clip">
			<path id="dp_path002" fill="white" fill-rule="evenodd" stroke="#13b5eb" stroke-width="1.33333" d="M 0.749333,0.749333 L 479.248,0.749333 L 479.248,359.248 L 0.749333,359.248 L 0.749333,0.749333M 20.6867,0.749333 L 20.6867,359.248M 40.624,0.749333 L 40.624,359.248M 60.5613,0.749333 L 60.5613,359.248M 80.4987,0.749333 L 80.4987,359.248M 100.436,0.749333 L 100.436,359.248M 120.375,0.749333 L 120.375,359.248M 140.312,0.749333 L 140.312,359.248M 160.249,0.749333 L 160.249,359.248M 180.187,0.749333 L 180.187,359.248M 200.124,0.749333 L 200.124,359.248M 220.061,0.749333 L 220.061,359.248M 239.999,0.749333 L 239.999,359.248M 259.936,0.749333 L 259.936,359.248M 279.873,0.749333 L 279.873,359.248M 299.811,0.749333 L 299.811,359.248M 319.748,0.749333 L 319.748,359.248M 339.685,0.749333 L 339.685,359.248M 359.624,0.749333 L 359.624,359.248M 379.561,0.749333 L 379.561,359.248M 399.499,0.749333 L 399.499,359.248M 419.436,0.749333 L 419.436,359.248M 439.373,0.749333 L 439.373,359.248M 459.311,0.749333 L 459.311,359.248M 0.749333,20.6653 L 479.248,20.6653M 0.749333,40.5827 L 479.248,40.5827M 0.749333,60.4987 L 479.248,60.4987M 0.749333,80.416 L 479.248,80.416M 0.749333,100.332 L 479.248,100.332M 0.749333,120.249 L 479.248,120.249M 0.749333,140.165 L 479.248,140.165M 0.749333,160.083 L 479.248,160.083M 0.749333,179.999 L 479.248,179.999M 0.749333,199.915 L 479.248,199.915M 0.749333,219.832 L 479.248,219.832M 0.749333,239.748 L 479.248,239.748M 0.749333,259.665 L 479.248,259.665M 0.749333,279.581 L 479.248,279.581M 0.749333,299.499 L 479.248,299.499M 0.749333,319.415 L 479.248,319.415M 0.749333,339.332 L 479.248,339.332"/>
			<path id="dp_path003" fill="none" fill-rule="evenodd" stroke="#a7a7a7" stroke-width="1.33333" d="M 240,0.00133333 L 240,359.999"/>
			<path id="dp_path004" fill="none" fill-rule="evenodd" stroke="#a7a7a7" stroke-width="1.33333" d="M 0,180 L 479.999,180"/>
		</g>
	</g>
</svg>