<svg version="1.1" width="115" height="77" viewBox="-1 -1 115 77" xmlns="http://www.w3.org/2000/svg" xmlns:xlink="http://www.w3.org/1999/xlink">
  <!-- Exported by Scratch - http://scratch.mit.edu/ -->
  <g id="ID0.8804858233779669" transform="matrix(0.949999988079071, 0, 0, 0.949999988079071, -0.15, -0.05)">
    <g id="Layer_3">
      <path id="ID0.8451694184914231" fill="#F9A41F" d="M 260.600 409.900 C 258 408.100 256 405.700 254.800 402.800 C 251.900 395.400 254.100 386.800 249.300 386.900 C 244.600 387 238.400 399.800 248.200 409.500 C 251.100 412.300 254.600 414.500 258.300 416.100 C 259.100 416.500 266.100 419.200 270 417 C 273.900 414.800 272.700 413.200 272.200 412.400 C 271.700 411.500 263.700 412.200 260.600 409.900 Z " transform="matrix(0.9024999737739563, 0, 0, 0.9024999737739563, -218.2, -317.7)"/>
      <path id="ID0.6858935537748039" fill="#FFFFFF" d="M 249.700 387 C 247.500 386.600 244 390.700 243.300 394.600 C 242.800 397.500 243.100 400.500 244 403.300 C 245 405 245.500 401.400 248.300 400.700 C 250.300 400.300 252.300 400.500 254.200 401.300 C 254.200 401.300 253.200 395.600 252.700 392.500 C 252.300 389.300 252 387.500 249.700 387 Z " transform="matrix(0.9024999737739563, 0, 0, 0.9024999737739563, -218.2, -317.7)"/>
      <path id="ID0.17426032526418567" fill="none" stroke="#231F20" stroke-linecap="round" stroke-linejoin="round" d="M 260.600 409.900 C 258 408.100 256 405.700 254.800 402.800 C 251.900 395.400 254.100 386.800 249.300 386.900 C 244.600 387 238.400 399.800 248.200 409.500 C 251.100 412.300 254.600 414.500 258.300 416.100 C 259.100 416.500 266.100 419.200 270 417 C 273.900 414.800 272.700 413.200 272.200 412.400 C 271.700 411.500 263.700 412.200 260.600 409.900 Z " transform="matrix(0.9024999737739563, 0, 0, 0.9024999737739563, -218.2, -317.7)"/>
    </g>
    <g id="ID0.8015054534189403">
      <path id="ID0.35254472540691495" fill="#F9A41F" d="M 331.500 428.400 C 331.500 428.400 348.400 436.900 358.900 434.800 C 369.300 432.700 367.700 420.400 360.200 422.300 C 355.500 423.500 342.600 424.800 335.700 422.600 C 328.700 420.400 327.200 426.400 331.500 428.400 Z " transform="matrix(0.9024999737739563, 0, 0, 0.9024999737739563, -218.2, -317.7)"/>
      <path id="ID0.18118325853720307" fill="none" stroke="#231F20" stroke-linecap="round" stroke-linejoin="round" d="M 331.500 428.400 C 331.500 428.400 348.400 436.900 358.900 434.800 C 369.300 432.700 367.700 420.400 360.200 422.300 C 355.500 423.500 342.600 424.800 335.700 422.600 C 328.700 420.400 327.200 426.400 331.500 428.400 Z " transform="matrix(0.9024999737739563, 0, 0, 0.9024999737739563, -218.2, -317.7)"/>
    </g>
    <path id="ID0.9482145281508565" fill="#231F20" stroke="#231F20" stroke-linecap="round" stroke-linejoin="round" opacity="0.1" d="M 282.600 410.800 C 281.100 408.800 279.400 407.100 277.400 405.700 C 276.500 402.100 276.400 398.400 277.200 394.800 C 280.300 398.100 283 401.700 285.300 405.700 C 287.300 408.700 285.500 414.400 282.600 410.800 Z " transform="matrix(0.9024999737739563, 0, 0, 0.9024999737739563, -218.2, -317.65)"/>
    <g id="ID0.05117864953354001">
      <path id="ID0.1841080985032022" fill="#F9A41F" d="M 285.200 405.600 C 285.200 405.600 278.500 393.400 271.600 390.800 C 261.600 387.100 259.200 395.700 263.100 399.600 C 267.900 404.500 274.200 400 282.600 410.700 C 285.500 414.400 287.300 408.800 285.200 405.600 Z " transform="matrix(0.9024999737739563, 0, 0, 0.9024999737739563, -218.2, -317.7)"/>
      <path id="ID0.6833870257250965" fill="none" stroke="#231F20" stroke-linecap="round" stroke-linejoin="round" d="M 285.200 405.600 C 285.200 405.600 278.500 393.400 271.600 390.800 C 261.600 387.100 259.200 395.700 263.100 399.600 C 267.900 404.500 274.200 400 282.600 410.700 C 285.500 414.400 287.300 408.800 285.200 405.600 Z " transform="matrix(0.9024999737739563, 0, 0, 0.9024999737739563, -218.2, -317.7)"/>
    </g>
    <g id="ID0.48522777296602726">
      <path id="ID0.7030626530759037" fill="#F9A41F" d="M 302.600 425.900 C 302.600 425.900 291.200 430.900 271.500 431.400 C 252.300 431.900 242.800 427.900 244.100 422.300 C 245.600 415.500 251.800 418.400 255.900 419.200 C 259.700 419.700 263.600 419.200 267.200 417.600 L 267.100 412.400 C 267.200 412.300 303.800 407 302.600 425.900 Z " transform="matrix(0.9024999737739563, 0, 0, 0.9024999737739563, -218.2, -317.7)"/>
      <path id="ID0.6132942135445774" fill="#FFFFFF" d="M 291.300 417.100 C 291.300 417.100 277.300 416.600 273.100 420.900 C 270.300 423.700 272.900 426.400 276.100 426.900 C 283.500 428.100 296.300 424.500 297.100 422.600 L 291.300 417.100 Z " transform="matrix(0.9024999737739563, 0, 0, 0.9024999737739563, -218.2, -317.7)"/>
      <path id="ID0.21069183386862278" fill="none" stroke="#231F20" stroke-linecap="round" stroke-linejoin="round" d="M 302.600 425.900 C 302.600 425.900 291.200 430.900 271.500 431.400 C 252.300 431.900 242.800 428.900 244.100 422.300 C 245.400 415.400 251.800 418.500 255.900 419.200 C 259.500 419.700 263.100 420 266.700 420 L 267.100 412.400 C 267.200 412.300 303.800 407 302.600 425.900 Z " transform="matrix(0.9024999737739563, 0, 0, 0.9024999737739563, -218.2, -317.7)"/>
    </g>
    <g id="ID0.685240566264838">
      <g id="ID0.7746110348962247">
        <path id="ID0.328220805618912" fill="#F9A41F" d="M 318.300 367.400 C 314.600 366.900 310.800 367.200 307.200 368.100 L 293 353.500 L 290.700 377.100 C 290.700 377.100 283.100 380.700 279.700 394.300 C 275.900 409.400 288.300 424.700 307.200 430.200 C 332.300 437.500 354.400 430.300 355.700 413.100 C 356.400 404.100 349.900 402 349.900 402 C 349.900 402 351.600 396.400 349.100 388.600 C 347.600 383.900 344.800 379.800 341.100 376.600 L 340.700 361.800 L 328.600 370 C 325.200 368.800 321.800 367.900 318.300 367.400 Z " transform="matrix(0.9024999737739563, 0, 0, 0.9024999737739563, -218.2, -317.7)"/>
        <path id="ID0.6610133568756282" fill="#FFFFFF" d="M 327.400 403.600 C 318.100 403.500 297.600 389.600 290.800 403.600 C 283.400 418.800 295.300 426.900 307.200 430.200 C 342.100 440 355.800 422.800 355.700 413.100 C 355.700 405.800 353.700 403.500 349.900 402 C 341.100 398.500 336.600 403.600 327.400 403.600 Z " transform="matrix(0.9024999737739563, 0, 0, 0.9024999737739563, -218.2, -317.7)"/>
        <g id="ID0.5234180972911417">
          <path id="ID0.6854334818199277" fill="none" stroke="#231F20" stroke-linecap="round" stroke-linejoin="round" d="M 318.300 367.400 C 314.600 366.900 310.800 367.200 307.200 368.100 L 293 353.500 L 290.700 377.100 C 290.700 377.100 283.100 380.700 279.700 394.300 C 275.900 409.400 288.300 424.700 307.200 430.200 C 332.300 437.500 354.400 430.300 355.700 413.100 C 356.400 404.100 349.900 402 349.900 402 C 349.900 402 351.600 396.400 349.100 388.600 C 347.600 383.900 344.800 379.800 341.100 376.600 L 340.700 361.800 L 328.600 370 C 325.200 368.800 321.800 367.900 318.300 367.400 Z " transform="matrix(0.9024999737739563, 0, 0, 0.9024999737739563, -218.2, -317.7)"/>
        </g>
      </g>
      <path id="ID0.18328718142583966" fill="none" stroke="#231F20" stroke-linecap="round" stroke-linejoin="round" d="M 307.200 368.100 L 308.500 369.500 " transform="matrix(0.9024999737739563, 0, 0, 0.9024999737739563, -218.2, -317.7)"/>
    </g>
    <path id="ID0.9732344932854176" fill="none" stroke="#231F20" stroke-linecap="round" stroke-linejoin="round" d="M 267.500 397.500 C 269.900 398.300 272.300 398.900 274.700 399.400 C 277 399.800 281.500 400.200 281.500 400.200 " transform="matrix(0.9024999737739563, 0, 0, 0.9024999737739563, -218.2, -317.65)"/>
    <path id="ID0.982788821682334" fill="none" stroke="#231F20" stroke-linecap="round" stroke-linejoin="round" d="M 282.800 395.500 C 280.800 393.400 278.600 391.400 276.300 389.700 C 274.100 388 271.700 386.500 269.100 385.200 " transform="matrix(0.9024999737739563, 0, 0, 0.9024999737739563, -218.2, -317.65)"/>
    <g id="ID0.26337171206250787">
      <path id="ID0.56489945249632" fill="#FFFFFF" stroke="#231F20" stroke-linecap="round" stroke-linejoin="round" d="M 346.500 388.100 C 348.900 394.300 347.600 400.600 343.800 402.100 C 339.900 403.600 334.900 399.700 332.500 393.500 C 330.100 387.300 331.400 381 335.200 379.500 C 339 377.900 344.100 381.900 346.500 388.100 Z " transform="matrix(0.9024999737739563, 0, 0, 0.9024999737739563, -218.2, -317.7)"/>
      <path id="ID0.775096942204982" fill="#231F20" d="M 344.500 391.500 C 344.500 392.700 343.400 393.700 342.200 393.700 C 341 393.700 340 392.600 340 391.400 C 340 390.200 340.900 389.300 342.100 389.200 C 343.400 389.200 344.500 390.300 344.500 391.500 C 344.500 391.500 344.500 391.500 344.500 391.500 " transform="matrix(0.9024999737739563, 0, 0, 0.9024999737739563, -218.2, -317.7)"/>
    </g>
    <g id="ID0.7706028069369495">
      <path id="ID0.9455000613816082" fill="#FFFFFF" stroke="#231F20" stroke-linecap="round" stroke-linejoin="round" d="M 316.400 385.700 C 318.800 391.900 317 398.400 312.400 400.100 C 307.800 401.800 302.100 398.200 299.800 392 C 297.400 385.700 299.200 379.300 303.800 377.600 C 308.400 375.900 314.100 379.500 316.400 385.700 Z " transform="matrix(0.9024999737739563, 0, 0, 0.9024999737739563, -218.2, -317.7)"/>
      <path id="ID0.35412361985072494" fill="#231F20" d="M 314.100 389.400 C 313.700 390.600 312.500 391.300 311.300 390.900 C 310.100 390.500 309.400 389.300 309.800 388.100 C 310.100 387 311.300 386.300 312.400 386.600 C 313.700 386.800 314.500 388.100 314.100 389.400 C 314.100 389.400 314.100 389.400 314.100 389.400 " transform="matrix(0.9024999737739563, 0, 0, 0.9024999737739563, -218.2, -317.7)"/>
    </g>
    <g id="ID0.7050393782556057">
      <path id="ID0.7292461628094316" fill="#231F20" stroke="#231F20" stroke-linecap="round" stroke-linejoin="round" d="M 327 400.600 C 329.100 400.800 333 400.400 332.800 402.900 C 332.600 404 329.700 407.700 327.300 407.300 C 324.900 406.900 321 403.300 321.600 401.400 C 322.200 399.500 325.100 400.400 327 400.600 Z " transform="matrix(0.9024999737739563, 0, 0, 0.9024999737739563, -218.2, -317.7)"/>
      <path id="ID0.4421373223885894" fill="none" stroke="#231F20" stroke-linecap="round" stroke-linejoin="round" d="M 334.500 414.200 C 334.200 416.700 317.700 415.400 318.300 412.200 " transform="matrix(0.9024999737739563, 0, 0, 0.9024999737739563, -218.2, -317.7)"/>
    </g>
    <path id="ID0.5864751464687288" fill="#F9A41F" d="M 274.800 415.200 C 274 418.800 269.200 421.400 264.200 421 C 259.200 420.600 255.900 417.400 256.800 413.800 C 257.700 410.200 262.400 407.600 267.400 407.900 C 272.400 408.300 275.700 411.600 274.800 415.200 Z " transform="matrix(0.9024999737739563, 0, 0, 0.9024999737739563, -218.2, -317.65)"/>
    <path id="ID0.6067810989916325" fill="none" stroke="#231F20" stroke-linecap="round" stroke-linejoin="round" d="M 274.800 415.200 C 274 418.800 269.200 421.400 264.200 421 C 259.200 420.600 255.900 417.400 256.800 413.800 C 257.700 410.200 262.400 407.600 267.400 407.900 C 272.400 408.300 275.700 411.600 274.800 415.200 Z " transform="matrix(0.9024999737739563, 0, 0, 0.9024999737739563, -218.2, -317.65)"/>
    <path id="ID0.3905865359120071" fill="none" stroke="#231F20" stroke-linecap="round" stroke-linejoin="round" d="M 353.100 408.900 C 356 409.100 358.900 409 361.900 408.800 C 364.100 408.500 366.200 407.900 368.100 406.900 " transform="matrix(0.9024999737739563, 0, 0, 0.9024999737739563, -218.2, -317.65)"/>
    <path id="ID0.570885996799916" fill="none" stroke="#231F20" stroke-linecap="round" stroke-linejoin="round" d="M 351.900 415.300 C 354 416.400 356.200 417.200 358.600 417.800 C 360.500 418.200 362.400 418.500 364.300 418.600 " transform="matrix(0.9024999737739563, 0, 0, 0.9024999737739563, -218.2, -317.65)"/>
  </g>
</svg>