<svg version="1.1" width="64" height="52" xmlns="http://www.w3.org/2000/svg" xmlns:xlink="http://www.w3.org/1999/xlink">
  <!-- Exported by Scratch - http://scratch.mit.edu/ -->
  <path id="ID0.39242670126259327" fill="#61A4F9" stroke="#000000" stroke-width="1" stroke-linecap="round" d="M 242.600 194.850 C 243.949 195.147 245.262 195.590 246.650 195.750 C 248.887 196.003 251.161 196.163 253.400 196.150 C 254.716 196.143 256.011 195.787 257.300 195.550 C 257.879 195.444 258.450 195.269 259.050 195.250 C 259.457 195.185 260.001 194.973 260.300 195.300 C 260.874 195.927 261.068 196.827 261.300 197.650 C 262.210 200.879 262.920 204.099 263.800 207.300 C 264.022 208.109 265 208.968 264.650 209.650 C 264.300 210.268 263.036 210.279 262.400 209.900 C 261.831 209.561 261.941 208.649 261.800 208 C 261.513 206.678 261.027 203.439 261.150 204.150 C 261.319 205.065 262.102 209.258 262.500 211.900 C 262.812 213.973 263.216 216.019 263.250 218.150 C 263.259 218.683 263.074 217.977 262.750 218.150 C 261.463 218.830 260.407 220.101 259 220.400 C 255.980 221.040 252.705 221.555 249.750 221.150 C 246.461 220.704 243.256 219.328 240.250 218.150 C 239.498 217.855 239.542 218.487 239.750 217.400 C 240.581 213.052 242.627 205.424 242.900 204.300 C 243.105 203.317 241.763 209.406 241 211.900 C 240.809 212.524 241.512 211.462 240.800 211.150 C 237.945 209.877 234.776 209.341 232 207.900 C 231.306 207.540 231.154 207.161 231.500 206.400 C 232.859 203.631 235.073 201.324 237 198.900 C 238.224 197.360 239.337 195.717 240.900 194.600 C 241.372 194.246 242.050 194.737 242.600 194.850 Z " transform="matrix(1.845070481300354, 0, 0, 1.845070481300354, -425.9, -357.75)"/>
  <path id="ID0.8250068644993007" fill="#FFA36C" stroke="none" d="M 238.100 173.300 C 239.221 173.242 240.257 173.233 241.300 173.300 C 242.157 173.283 243.025 173.630 243.800 173.450 C 244.119 173.376 244.048 172.819 244.200 172.550 C 244.731 171.502 245.137 169.031 245.850 169.500 C 247.117 170.335 247.821 173.148 248.200 175.150 C 248.599 177.260 248.758 179.430 248.200 181.400 C 247.807 182.829 246.740 184.192 245.500 184.800 C 243.631 185.714 241.511 185.964 239.350 185.900 C 237.559 185.847 235.728 185.269 234.200 184.400 C 233.131 183.849 232.182 182.878 231.850 181.800 C 231.272 179.914 231.139 177.814 231.350 175.900 C 231.576 173.808 231.805 171.426 233 169.800 C 233.442 169.207 234.292 170.852 234.800 171.550 C 235.206 172.105 235.064 173.173 235.700 173.500 C 236.447 173.882 237.304 173.342 238.100 173.300 Z " transform="matrix(1, 0, 0, 1, -199.6, -155.55)"/>
</svg>