<?xml version="1.0" encoding="UTF-8" standalone="no"?>
<svg version="1.1" xmlns="http://www.w3.org/2000/svg" xmlns:xlink="http://www.w3.org/1999/xlink" width="480" height="360">
	<defs>
		<clipPath id="clip_dp_001" clipPathUnits="userSpaceOnUse" clip-rule="nonzero">
			<path d="M 0,0 L 480,0 L 480,360 L 0,360 Z " clip-rule="nonzero"/>
		</clipPath>
	</defs>
	<g id="dp_dp001" clip-path="url(#clip_dp_001)">
		<g id="clip">
			<path id="dp_path002" fill="white" fill-rule="evenodd" stroke="#13b5eb" stroke-width="1.33333" d="M 0.749333,0.749333 L 479.248,0.749333 L 479.248,359.248 L 0.749333,359.248 L 0.749333,0.749333M 30.656,0.749333 L 30.656,359.248M 60.5613,0.749333 L 60.5613,359.248M 90.468,0.749333 L 90.468,359.248M 120.375,0.749333 L 120.375,359.248M 150.28,0.749333 L 150.28,359.248M 180.187,0.749333 L 180.187,359.248M 210.092,0.749333 L 210.092,359.248M 239.999,0.749333 L 239.999,359.248M 269.905,0.749333 L 269.905,359.248M 299.811,0.749333 L 299.811,359.248M 329.717,0.749333 L 329.717,359.248M 359.624,0.749333 L 359.624,359.248M 389.529,0.749333 L 389.529,359.248M 419.436,0.749333 L 419.436,359.248M 449.341,0.749333 L 449.341,359.248M 0.749333,30.624 L 479.248,30.624M 0.749333,60.4987 L 479.248,60.4987M 0.749333,90.3747 L 479.248,90.3747M 0.749333,120.249 L 479.248,120.249M 0.749333,150.124 L 479.248,150.124M 0.749333,179.999 L 479.248,179.999M 0.749333,209.873 L 479.248,209.873M 0.749333,239.748 L 479.248,239.748M 0.749333,269.624 L 479.248,269.624M 0.749333,299.499 L 479.248,299.499M 0.749333,329.373 L 479.248,329.373"/>
			<path id="dp_path003" fill="none" fill-rule="evenodd" stroke="#a7a7a7" stroke-width="1.33333" d="M 240,0.00133333 L 240,359.999"/>
			<path id="dp_path004" fill="none" fill-rule="evenodd" stroke="#a7a7a7" stroke-width="1.33333" d="M 0,180 L 479.999,180"/>
		</g>
	</g>
</svg>