<?xml version="1.0" encoding="utf-8"?>
<!-- Generator: Adobe Illustrator 19.1.0, SVG Export Plug-In . SVG Version: 6.00 Build 0)  -->
<svg version="1.1" id="Layer_1" xmlns="http://www.w3.org/2000/svg" xmlns:xlink="http://www.w3.org/1999/xlink" x="0px" y="0px"
	 viewBox="0 0 132.8 139.3" enable-background="new 0 0 132.8 139.3" xml:space="preserve">
<line fill="none" stroke="#BCBEC0" stroke-width="1.4" stroke-linecap="round" stroke-linejoin="round" stroke-miterlimit="10" x1="37.3" y1="122.9" x2="92" y2="122.9"/>
<g>
	
		<path fill="#FFFFFF" stroke="#F7941E" stroke-width="1.4" stroke-linecap="round" stroke-linejoin="round" stroke-miterlimit="10" d="
		M44.2,45.8l-24.5,5.7c-0.9,0.2-1.7-0.3-1.9-1.2l-3.4-14.7c-0.2-0.9,0.3-1.7,1.2-1.9L40,28c0.9-0.2,1.7,0.3,1.9,1.2l3.4,14.7
		C45.6,44.7,45,45.6,44.2,45.8z"/>
	
		<line fill="#FFFFFF" stroke="#F7941E" stroke-width="1.4" stroke-linecap="round" stroke-linejoin="round" stroke-miterlimit="10" x1="33.4" y1="38.8" x2="44.7" y2="44.9"/>
	
		<line fill="#FFFFFF" stroke="#F7941E" stroke-width="1.4" stroke-linecap="round" stroke-linejoin="round" stroke-miterlimit="10" x1="18.7" y1="51" x2="26.2" y2="40.5"/>
	
		<path fill="#FFFFFF" stroke="#F7941E" stroke-width="1.4" stroke-linecap="round" stroke-linejoin="round" stroke-miterlimit="10" d="
		M14.9,34.6l13.7,7.2c1.1,0.6,2.5,0.3,3.3-0.8l9.1-12.5"/>
</g>
<path fill="#27AAE1" stroke="#2398C1" stroke-width="1.4" stroke-linecap="round" stroke-linejoin="round" stroke-miterlimit="10" d="
	M89.5,91.1l-1.2,29.6c0,1.2-1.1,2.2-2.3,2.2H42.9c-1.2,0-2.3-1-2.3-2.2l-1.2-29.6c0-1.1,0.7-2.1,1.8-2.3h2.9c0.2,0,0.4,0,0.5-0.1
	c1-0.2,1.8-0.9,2.2-1.8c0.4-1.1,1.5-1.9,2.7-1.9h7.7c1.2,0,2.3,0.7,2.7,1.9c0.4,0.9,1.2,1.6,2.2,1.8c0.2,0,0.4,0.1,0.5,0.1h25.1
	C88.8,89,89.6,90,89.5,91.1z"/>
<g>
	<path fill="#6D6E71" d="M86.4,76.2V99H44V69.5c0-0.9,0.7-1.5,1.5-1.5h33.1l-0.3,0.3L86.4,76.2z"/>
	<path fill="none" stroke="#58595B" stroke-width="1.4" stroke-linecap="round" stroke-linejoin="round" stroke-miterlimit="10" d="
		M86.4,76.2V99H44V69.5c0-0.9,0.7-1.5,1.5-1.5h33.1"/>
	
		<path fill="#FFFFFF" stroke="#58595B" stroke-width="1.4" stroke-linecap="round" stroke-linejoin="round" stroke-miterlimit="10" d="
		M60.2,88.3v-9.5c0-1.1,1.3-1.8,2.2-1.2l7.5,4.7c0.9,0.6,0.9,1.9,0,2.5l-7.5,4.7C61.5,90.2,60.2,89.5,60.2,88.3z"/>
	<path fill="none" stroke="#58595B" stroke-width="1.4" stroke-linecap="round" stroke-linejoin="round" stroke-miterlimit="10" d="
		M78.6,74.7V68l7.7,8l-0.3,0.3h-6C79.3,76.2,78.6,75.5,78.6,74.7z"/>
</g>
<g>
	<g>
		
			<path fill="#D13F3F" stroke="#B53939" stroke-width="1.4" stroke-linecap="round" stroke-linejoin="round" stroke-miterlimit="10" d="
			M108.8,50l-18.5-4.5c-3.3-0.8-5.4-4.2-4.6-7.5l2-8.3c0.8-3.3,4.2-5.4,7.5-4.6l18.5,4.5c3.3,0.8,5.4,4.2,4.6,7.5l-2,8.3
			C115.5,48.7,112.1,50.8,108.8,50z"/>
		
			<path fill="#FFFFFF" stroke="#B53939" stroke-width="1.4" stroke-linecap="round" stroke-linejoin="round" stroke-miterlimit="10" d="
			M98.2,40.2l1.6-6.7c0.2-0.8,1.2-1.1,1.8-0.5l4.5,4.7c0.5,0.6,0.3,1.5-0.4,1.7l-6.1,2.1C98.8,41.7,98,41,98.2,40.2z"/>
	</g>
	<g>
		
			<path fill="#D13F3F" stroke="#B53939" stroke-width="1.4" stroke-linecap="round" stroke-linejoin="round" stroke-miterlimit="10" d="
			M108.8,52.2l-18.5-4.5c-3.3-0.8-5.4-4.2-4.6-7.5l2-8.3c0.8-3.3,4.2-5.4,7.5-4.6l18.5,4.5c3.3,0.8,5.4,4.2,4.6,7.5l-2,8.3
			C115.5,51,112.1,53,108.8,52.2z"/>
		
			<path fill="#FFFFFF" stroke="#B53939" stroke-width="1.4" stroke-linecap="round" stroke-linejoin="round" stroke-miterlimit="10" d="
			M98.2,42.4l1.6-6.7c0.2-0.8,1.2-1.1,1.8-0.5l4.5,4.7c0.5,0.6,0.3,1.5-0.4,1.7l-6.1,2.1C98.8,43.9,98,43.2,98.2,42.4z"/>
	</g>
</g>
<g>
	
		<path fill="#5B77CE" stroke="#536FB7" stroke-width="1.4" stroke-linecap="round" stroke-linejoin="round" stroke-miterlimit="10" d="
		M72.1,36.7l-11.2,2.7c-2.6,0.6-5.2-1-5.8-3.6L52.9,27c-0.6-2.6,1-5.2,3.6-5.8l11.2-2.7c2.6-0.6,5.2,1,5.8,3.6l2.1,8.8
		C76.3,33.5,74.7,36.1,72.1,36.7z"/>
	
		<path fill="#5B77CE" stroke="#536FB7" stroke-width="1.4" stroke-linecap="round" stroke-linejoin="round" stroke-miterlimit="10" d="
		M71.6,34.8l-11.2,2.7c-2.6,0.6-5.2-1-5.8-3.6l-2.1-8.8c-0.6-2.6,1-5.2,3.6-5.8l11.2-2.7c2.6-0.6,5.2,1,5.8,3.6l2.1,8.8
		C75.8,31.6,74.2,34.2,71.6,34.8z"/>
	<g id="f_8_">
		<path fill="#FFFFFF" d="M66.3,35.7c-0.3,0-0.6-0.2-0.7-0.5l-1.3-5.5L62.9,30c-0.1,0-0.1,0-0.2,0c-0.1,0-0.3,0-0.4-0.1
			c-0.2-0.1-0.3-0.3-0.3-0.4l-0.6-2.4c0-0.2,0-0.4,0.1-0.5c0.1-0.2,0.3-0.3,0.4-0.3l1.4-0.3l-0.3-1.1c-0.6-2.3,0.6-4.2,2.9-4.7
			c0.9-0.2,1.7-0.3,2-0.4c0,0,0,0,0.1,0c0.3,0,0.6,0.2,0.7,0.5l0.5,2.1c0.1,0.4-0.1,0.8-0.5,0.8l-1.3,0.3c-0.4,0.1-0.4,0.2-0.4,0.2
			c0,0,0,0.1,0,0.4l0.2,0.9l1.7-0.4c0.1,0,0.1,0,0.2,0c0.1,0,0.3,0,0.4,0.1c0.2,0.1,0.3,0.3,0.3,0.5l0.3,2.5c0,0.4-0.2,0.7-0.5,0.8
			l-1.4,0.3l1.3,5.5c0,0.2,0,0.4-0.1,0.5c-0.1,0.2-0.3,0.3-0.4,0.3l-2.5,0.6C66.4,35.7,66.4,35.7,66.3,35.7z"/>
		<path fill="#536FB7" d="M68.1,20.4l0.5,2.1l-1.3,0.3c-1,0.2-1.1,0.8-0.9,1.5l0.4,1.5l2.4-0.6l0.3,2.5l-2.1,0.5l1.5,6.2L66.3,35
			l-1.5-6.2l-2.1,0.5l-0.6-2.4l2.1-0.5l-0.4-1.8c-0.5-2.1,0.5-3.5,2.3-3.9C67.1,20.6,67.8,20.5,68.1,20.4 M68.1,19c0,0-0.1,0-0.1,0
			c-0.3,0-1.2,0.2-2.1,0.4c-1.3,0.3-2.3,1-2.9,2c-0.6,1-0.8,2.3-0.5,3.6l0.1,0.4l-0.7,0.2c-0.4,0.1-0.7,0.3-0.9,0.6
			c-0.2,0.3-0.3,0.7-0.2,1.1l0.6,2.4c0.2,0.6,0.7,1.1,1.4,1.1c0.1,0,0.2,0,0.3,0l0.7-0.2l1.1,4.8c0.1,0.4,0.3,0.7,0.6,0.9
			c0.2,0.1,0.5,0.2,0.7,0.2c0.1,0,0.2,0,0.3,0l2.5-0.6c0.4-0.1,0.7-0.3,0.9-0.6c0.2-0.3,0.3-0.7,0.2-1.1L69,29.3l0.7-0.2
			c0.7-0.2,1.1-0.8,1.1-1.5l-0.3-2.5c0-0.4-0.3-0.8-0.6-1c-0.2-0.2-0.5-0.3-0.8-0.3c0,0-0.1,0-0.1,0c0.7-0.2,1.1-0.9,0.9-1.6
			l-0.5-2.1C69.3,19.5,68.7,19,68.1,19L68.1,19z"/>
	</g>
</g>
<path fill="#27AAE1" stroke="#2398C1" stroke-width="1.4" stroke-linecap="round" stroke-linejoin="round" stroke-miterlimit="10" d="
	M92,95.6l-3.4,25.3c-0.2,1.1-1.1,2-2.3,2H42.7c-1.2,0-2.1-0.9-2.3-2L37,95.6c-0.2-1.4,0.9-2.6,2.3-2.6h4.8c1.2,0,2.3,0.7,2.7,1.9
	l0,0c0.4,1.1,1.5,1.9,2.7,1.9h7.7c1.2,0,2.3-0.7,2.7-1.9l0,0c0.4-1.1,1.5-1.9,2.7-1.9h27.1C91.1,93,92.1,94.2,92,95.6z"/>
<line fill="none" stroke="#2398C1" stroke-width="1.4" stroke-linecap="round" stroke-linejoin="round" stroke-miterlimit="10" x1="43.4" y1="119.9" x2="85.6" y2="119.9"/>
<line fill="none" stroke="#2398C1" stroke-width="1.4" stroke-linecap="round" stroke-linejoin="round" stroke-miterlimit="10" x1="43.4" y1="117.1" x2="85.6" y2="117.1"/>
<g>
	
		<line fill="none" stroke="#27AAE1" stroke-width="1.4" stroke-linecap="round" stroke-linejoin="round" stroke-miterlimit="10" x1="64.6" y1="60.8" x2="64.6" y2="49.9"/>
	
		<polyline fill="none" stroke="#27AAE1" stroke-width="1.4" stroke-linecap="round" stroke-linejoin="round" stroke-miterlimit="10" points="
		62,52.5 64.6,49.9 67.2,52.5 	"/>
</g>
<g>
	
		<line fill="none" stroke="#27AAE1" stroke-width="1.4" stroke-linecap="round" stroke-linejoin="round" stroke-miterlimit="10" x1="43.5" y1="63.4" x2="37.6" y2="55.1"/>
	
		<polyline fill="none" stroke="#27AAE1" stroke-width="1.4" stroke-linecap="round" stroke-linejoin="round" stroke-miterlimit="10" points="
		36.7,58.4 37.2,54.7 40.9,55.2 	"/>
</g>
<g>
	
		<line fill="none" stroke="#27AAE1" stroke-width="1.4" stroke-linecap="round" stroke-linejoin="round" stroke-miterlimit="10" x1="85.4" y1="63.6" x2="91.3" y2="55.4"/>
	
		<polyline fill="none" stroke="#27AAE1" stroke-width="1.4" stroke-linecap="round" stroke-linejoin="round" stroke-miterlimit="10" points="
		92.2,58.6 91.7,55 88,55.5 	"/>
</g>
<path fill="none" stroke="#2DC3F7" stroke-width="1.4" stroke-linecap="round" stroke-linejoin="round" stroke-miterlimit="10" d="
	M43.7,95.6l-3.2,0c-0.5,0-0.9,0.5-0.9,1l0.6,3.5"/>
<line fill="none" stroke="#2DC3F7" stroke-width="1.4" stroke-linecap="round" stroke-linejoin="round" stroke-miterlimit="10" x1="62.9" y1="95.3" x2="78.3" y2="95.3"/>
<line fill="none" stroke="#2DC3F7" stroke-width="1.4" stroke-linecap="round" stroke-linejoin="round" stroke-miterlimit="10" x1="80.7" y1="95.3" x2="84.8" y2="95.3"/>
<line fill="none" stroke="#A7A9AC" stroke-width="1.4" stroke-linecap="round" stroke-linejoin="round" stroke-miterlimit="10" x1="46.6" y1="70.4" x2="50.3" y2="70.4"/>
</svg>
