<svg version="1.1" width="94" height="97" viewBox="-1 -1 94 97" xmlns="http://www.w3.org/2000/svg" xmlns:xlink="http://www.w3.org/1999/xlink">
  <!-- Exported by Scratch - http://scratch.mit.edu/ -->
  <g id="ID0.728828398976475" transform="matrix(0.949999988079071, 0, 0, 0.949999988079071, 0.25, 0.3)">
    <path id="ID0.3072393317706883" fill="#F9A41E" d="M 73.700 39 C 73.700 39 90 30.400 94.200 21.100 C 98.500 11.700 87.800 6 85.100 13.100 C 83.400 17.400 77.100 28.400 71.400 32.600 C 65.900 36.800 69.700 41.400 73.700 39 Z " transform="matrix(0.949999988079071, 0, 0, 0.949999988079071, -0.55, -0.4)"/>
    <path id="ID0.33640219923108816" fill="#F9A41E" d="M 9.200 79.800 C 18 67.900 29.400 61.900 29.400 61.900 L 49.300 71.500 C 49.300 71.500 39.900 86.400 35.600 88.200 C 35.600 88.200 24.900 87.100 20.400 84.600 " transform="matrix(0.949999988079071, 0, 0, 0.949999988079071, -0.55, -0.4)"/>
    <path id="ID0.8955257972702384" fill="#F9A41E" d="M 9.200 79.800 C 9.200 79.800 3.200 86.600 1.300 92.300 C -1.100 100 9.200 104.700 13.700 96.100 C 16 91.600 18.400 86.700 21.500 83.300 " transform="matrix(0.949999988079071, 0, 0, 0.949999988079071, -0.55, -0.4)"/>
    <path id="ID0.2634306978434324" fill="none" stroke="#231F20" stroke-linecap="round" stroke-linejoin="round" d="M 9.200 79.800 C 19.300 67.900 29.400 61.900 29.400 61.900 L 49.300 71.500 C 49.300 71.500 39.900 86.400 35.600 88.200 C 35.600 88.200 24.900 87.100 20.400 84.600 " transform="matrix(0.949999988079071, 0, 0, 0.949999988079071, -0.55, -0.4)"/>
    <path id="ID0.3834887407720089" fill="#FFFFFF" d="M 33 65.200 C 29 67 21.600 73.500 23.700 78.100 C 25.800 82.700 38.100 85.100 43.700 73.500 C 47.800 65.200 37 63.500 33 65.200 Z " transform="matrix(0.949999988079071, 0, 0, 0.949999988079071, -0.55, -0.4)"/>
    <path id="ID0.0825743293389678" fill="none" stroke="#231F20" stroke-linecap="round" stroke-linejoin="round" d="M 9.200 79.800 C 9.200 79.800 3.200 86.600 1.300 92.300 C -1.100 100 9.200 104.700 13.700 96.100 C 16 91.600 18.400 86.700 21.500 83.300 " transform="matrix(0.949999988079071, 0, 0, 0.949999988079071, -0.55, -0.4)"/>
    <path id="ID0.4248275365680456" fill="#F9A41E" d="M 41.300 91.900 C 38.900 97.900 33.600 101 29.400 99.300 C 25.800 97.900 25.100 92.700 27.600 88.200 C 30.400 83.200 35.300 80.300 39 81.400 C 42.500 82.600 43.300 86.800 41.300 91.900 Z " transform="matrix(0.949999988079071, 0, 0, 0.949999988079071, -0.55, -0.4)"/>
    <path id="ID0.4170016339048743" fill="none" stroke="#231F20" stroke-linecap="round" stroke-linejoin="round" d="M 41.300 91.900 C 38.900 97.900 33.600 101 29.400 99.300 C 25.800 97.900 25.100 92.700 27.600 88.200 C 30.400 83.200 35.300 80.300 39 81.400 C 42.500 82.600 43.300 86.800 41.300 91.900 Z " transform="matrix(0.949999988079071, 0, 0, 0.949999988079071, -0.55, -0.4)"/>
    <path id="ID0.4534302558749914" fill="#F9A41E" d="M 19.400 58.200 C 19.400 58.200 7.700 56.200 3.100 64.500 C -2.100 73.800 9 76.500 12 70 C 15.600 62.700 23.700 63.700 23.700 63.700 L 19.400 58.200 Z " transform="matrix(0.949999988079071, 0, 0, 0.949999988079071, -0.55, -0.4)"/>
    <path id="ID0.8974373424425721" fill="none" stroke="#231F20" stroke-linecap="round" stroke-linejoin="round" d="M 73.700 39 C 73.700 39 90 30.400 94.200 21.100 C 98.500 11.700 87.800 6 85.100 13.100 C 83.400 17.400 77.100 28.400 71.400 32.600 C 65.900 36.800 69.700 41.400 73.700 39 Z " transform="matrix(0.949999988079071, 0, 0, 0.949999988079071, -0.55, -0.4)"/>
    <path id="ID0.1449340949766338" fill="none" stroke="#231F20" stroke-linecap="round" stroke-linejoin="round" d="M 19.400 58.200 C 19.400 58.200 7.100 56.200 3.100 64.500 C -1.600 74.100 9 76.500 12 70 C 15.600 62.700 23.700 63.700 23.700 63.700 L 19.400 58.200 Z " transform="matrix(0.949999988079071, 0, 0, 0.949999988079071, -0.55, -0.4)"/>
    <path id="ID0.8441412895917892" fill="#F9A41E" d="M 45.100 11.100 C 39.500 11.400 34.600 13.900 34.600 13.900 L 18.400 2.600 L 20.600 25.600 C 20.600 25.600 14.100 30.400 13.300 44 C 12.500 59.100 27.100 71.400 46.200 73 C 71.500 75.300 91.100 64.300 89.300 47.700 C 88.300 39 81.600 38.100 81.600 38.100 C 81.600 38.100 82.200 32.400 78.400 25.500 C 74.600 18.500 68.600 15.500 68.600 15.500 L 65.400 1.500 L 55.400 11.600 C 55.400 11.600 50.700 11 45.100 11.100 Z " transform="matrix(0.949999988079071, 0, 0, 0.949999988079071, -0.55, -0.4)"/>
    <path id="ID0.7266229740343988" fill="#FFFFFF" d="M 60.400 43.900 C 51.600 45.600 29.400 36.100 25.600 50.700 C 21.300 66.500 34.200 72 46.100 73 C 82.200 76.300 91.200 57 89.200 47.700 C 87.800 40.800 85.500 38.900 81.500 38.100 C 72.600 36.500 69.300 42.300 60.400 43.900 Z " transform="matrix(0.949999988079071, 0, 0, 0.949999988079071, -0.55, -0.4)"/>
    <path id="ID0.07941257441416383" fill="none" stroke="#231F20" stroke-width="0.7" stroke-linecap="round" stroke-linejoin="round" d="M 32.600 12.500 L 37.200 15.800 " transform="matrix(0.949999988079071, 0, 0, 0.949999988079071, -0.55, -0.4)"/>
    <path id="ID0.3073604479432106" fill="none" stroke="#231F20" stroke-linecap="round" stroke-linejoin="round" d="M 45.100 11.100 C 39.500 11.400 34.600 13.900 34.600 13.900 L 18.400 2.600 L 20.600 25.600 C 20.600 25.600 14.100 30.400 13.300 44 C 12.500 59.100 27.100 71.400 46.200 73 C 71.500 75.300 91.100 64.300 89.300 47.700 C 88.300 39 81.600 38.100 81.600 38.100 C 81.600 38.100 82.200 32.400 78.400 25.500 C 74.600 18.500 68.600 15.500 68.600 15.500 L 65.400 1.500 L 55.400 11.600 C 55.400 11.600 50.700 11 45.100 11.100 Z " transform="matrix(0.949999988079071, 0, 0, 0.949999988079071, -0.55, -0.4)"/>
    <path id="ID0.1148456297814846" fill="none" stroke="#231F20" stroke-linecap="round" stroke-linejoin="round" d="M 2.300 49.300 C 2.300 49.300 7.300 49.800 9.600 49.800 C 11.900 49.700 16.200 49.300 16.200 49.300 " transform="matrix(0.949999988079071, 0, 0, 0.949999988079071, -0.55, -0.4)"/>
    <path id="ID0.3569164266809821" fill="none" stroke="#231F20" stroke-linecap="round" stroke-linejoin="round" d="M 16.500 44.600 C 16.500 44.600 13.700 42.400 9.200 40.300 C 4.200 38 1.500 37.400 1.500 37.400 " transform="matrix(0.949999988079071, 0, 0, 0.949999988079071, -0.55, -0.4)"/>
    <path id="ID0.399786364287138" fill="#FFFFFF" stroke="#231F20" stroke-linecap="round" stroke-linejoin="round" d="M 75.800 25.700 C 79.200 31.200 79.200 37.300 75.800 39.500 C 72.400 41.700 66.900 38.900 63.400 33.400 C 60 27.900 60 21.800 63.400 19.600 C 66.800 17.500 72.400 20.200 75.800 25.700 Z " transform="matrix(0.949999988079071, 0, 0, 0.949999988079071, -0.55, -0.4)"/>
    <path id="ID0.012973028235137463" fill="#231F20" d="M 73.200 26.400 C 73.600 27.700 72.800 29 71.700 29.200 C 70.600 29.500 69.300 28.700 69 27.400 C 68.600 26.100 69.400 24.800 70.500 24.600 C 71.600 24.400 72.800 25.200 73.200 26.400 " transform="matrix(0.949999988079071, 0, 0, 0.949999988079071, 0.35, 2.4)"/>
    <path id="ID0.4833636190742254" fill="#FFFFFF" stroke="#231F20" stroke-linecap="round" stroke-linejoin="round" d="M 46.700 29 C 50.100 34.500 49.600 41 45.600 43.500 C 41.600 46 35.500 43.600 32.100 38.100 C 28.700 32.600 29.200 26.100 33.200 23.600 C 37.200 21.100 43.300 23.500 46.700 29 Z " transform="matrix(0.949999988079071, 0, 0, 0.949999988079071, -0.55, -0.4)"/>
    <path id="ID0.2379798092879355" fill="#231F20" d="M 43.800 30 C 43.800 31.300 42.800 32.300 41.600 32.300 C 40.500 32.300 39.400 31.200 39.400 29.900 C 39.400 28.600 40.400 27.600 41.600 27.600 C 42.900 27.700 43.800 28.700 43.800 30 " transform="matrix(0.949999988079071, 0, 0, 0.949999988079071, 0.35, 2.4)"/>
    <path id="ID0.00844710785895586" fill="#231F20" stroke="#231F20" stroke-width="0.7" stroke-linecap="round" stroke-linejoin="round" d="M 59.500 41.100 C 61.500 40.800 65.100 39.800 65.500 42.200 C 65.500 43.200 63.500 47.300 61 47.400 C 58.600 47.500 54.200 44.700 54.500 42.800 C 54.800 41 57.700 41.400 59.500 41.100 Z " transform="matrix(0.949999988079071, 0, 0, 0.949999988079071, -0.55, -0.4)"/>
    <path id="ID0.7077047214843333" fill="none" stroke="#231F20" stroke-linecap="round" stroke-linejoin="round" d="M 67.800 51.100 C 67.900 53.500 52.200 55.300 52.400 52.200 " transform="matrix(0.949999988079071, 0, 0, 0.949999988079071, -0.55, -0.4)"/>
    <path id="ID0.41016054805368185" fill="#231F20" stroke="#231F20" stroke-width="0.7" stroke-linecap="round" stroke-linejoin="round" opacity="0.1" d="M 24.500 65.400 C 23.700 66 22.800 66.700 21.800 67.400 " transform="matrix(0.949999988079071, 0, 0, 0.949999988079071, -0.55, -0.4)"/>
    <path id="ID0.8669978589750826" fill="#231F20" stroke="#231F20" stroke-width="0.7" stroke-linecap="round" stroke-linejoin="round" opacity="0.1" d="M 48.100 73.300 C 47.700 73.900 47.100 74.800 46.400 75.700 " transform="matrix(0.949999988079071, 0, 0, 0.949999988079071, -0.55, -0.4)"/>
    <path id="ID0.8964151539839804" fill="none" stroke="#231F20" stroke-linecap="round" stroke-linejoin="round" d="M 83.400 44.300 C 83.400 44.300 88.900 43.500 91.700 42.600 C 95 41.600 97.300 39.700 97.300 39.700 " transform="matrix(0.949999988079071, 0, 0, 0.949999988079071, -0.55, -0.4)"/>
    <path id="ID0.0632392056286335" fill="none" stroke="#231F20" stroke-linecap="round" stroke-linejoin="round" d="M 83.800 51.500 C 83.800 51.500 87.100 52.900 90.400 53.300 C 93.700 53.700 96 53.600 96 53.600 " transform="matrix(0.949999988079071, 0, 0, 0.949999988079071, -0.55, -0.4)"/>
  </g>
</svg>